<?xml version="1.0" encoding="iso-8859-1"?>
<!-- Generator: Adobe Illustrator 16.0.0, SVG Export Plug-In . SVG Version: 6.00 Build 0)  -->
<!DOCTYPE svg PUBLIC "-//W3C//DTD SVG 1.1//EN" "http://www.w3.org/Graphics/SVG/1.1/DTD/svg11.dtd">
<svg version="1.1" id="Capa_1" xmlns="http://www.w3.org/2000/svg" xmlns:xlink="http://www.w3.org/1999/xlink" x="0px" y="0px"
	 width="592.175px" height="592.176px" viewBox="0 0 592.175 592.176" style="enable-background:new 0 0 592.175 592.176; fill:#f93f3f;"
	 xml:space="preserve">
<g>
	<g>
		<path d="M231.828,101.619v-44.36c-14.04,3.419-27.812,7.975-41.253,13.66c-32.28,13.653-61.261,33.19-86.139,58.067
			c-24.877,24.878-44.414,53.859-58.067,86.139c-14.145,33.442-21.317,68.942-21.317,105.513c0,36.57,7.172,72.07,21.317,105.512
			c13.653,32.281,33.19,61.262,58.067,86.139c24.878,24.879,53.859,44.416,86.139,58.068
			c33.442,14.145,68.942,21.318,105.512,21.318c36.571,0,72.071-7.174,105.513-21.318c32.28-13.652,61.262-33.189,86.14-58.068
			c24.877-24.877,44.414-53.857,58.066-86.139c14.146-33.441,21.317-68.941,21.317-105.512c0-36.571-7.172-72.071-21.317-105.513
			c-13.652-32.28-33.189-61.261-58.066-86.139c-24.878-24.877-53.859-44.415-86.14-58.067c-13.439-5.685-27.212-10.241-41.253-13.66
			v44.36c94.742,27.751,163.936,115.303,163.936,219.02c0,126.029-102.166,228.195-228.195,228.195S67.892,446.668,67.892,320.639
			C67.892,216.923,137.086,129.372,231.828,101.619z"/>
		<path d="M296.087,592.176c-36.635,0-72.2-7.186-105.707-21.357c-32.339-13.678-61.374-33.251-86.297-58.176
			c-24.924-24.923-44.496-53.958-58.174-86.298c-14.171-33.503-21.356-69.067-21.356-105.706s7.186-72.204,21.356-105.708
			c13.679-32.339,33.251-61.375,58.174-86.298c24.924-24.924,53.959-44.497,86.297-58.174c13.386-5.662,27.291-10.267,41.33-13.686
			l0.618-0.15v45.371l-0.359,0.105c-46.262,13.551-87.898,42.263-117.239,80.846c-30.314,39.864-46.338,87.478-46.338,137.693
			c0,60.82,23.685,117.999,66.69,161.005s100.186,66.69,161.005,66.69c60.82,0,117.999-23.685,161.005-66.69
			s66.69-100.185,66.69-161.005c0-50.216-16.023-97.83-46.338-137.694c-29.34-38.583-70.976-67.295-117.238-80.846l-0.359-0.105
			V56.623l0.618,0.15c14.039,3.419,27.944,8.023,41.329,13.686c32.339,13.678,61.374,33.25,86.299,58.174
			c24.924,24.925,44.496,53.96,58.174,86.298c14.171,33.503,21.356,69.068,21.356,105.708c0,36.639-7.186,72.204-21.356,105.706
			c-13.677,32.339-33.249,61.373-58.174,86.298c-24.924,24.925-53.959,44.498-86.299,58.176
			C368.289,584.99,332.723,592.176,296.087,592.176z M231.328,57.896c-13.776,3.391-27.418,7.925-40.558,13.483
			c-32.219,13.627-61.147,33.128-85.98,57.96c-24.832,24.832-44.332,53.76-57.96,85.98c-14.119,33.38-21.277,68.814-21.277,105.318
			s7.159,71.938,21.277,105.317c13.628,32.22,33.128,61.147,57.96,85.979c24.833,24.833,53.76,44.335,85.98,57.961
			c33.383,14.12,68.817,21.279,105.317,21.279c36.501,0,71.936-7.159,105.318-21.279c32.22-13.627,61.148-33.128,85.98-57.961
			c24.833-24.833,44.333-53.761,57.959-85.979c14.119-33.379,21.278-68.812,21.278-105.317s-7.159-71.939-21.278-105.318
			c-13.626-32.219-33.127-61.147-57.959-85.98c-24.833-24.833-53.761-44.333-85.98-57.96c-13.14-5.558-26.781-10.093-40.559-13.483
			v43.349c46.323,13.653,88.001,42.441,117.395,81.094c30.447,40.04,46.541,87.863,46.541,138.299
			c0,61.087-23.788,118.518-66.983,161.712c-43.194,43.195-100.625,66.983-161.712,66.983s-118.518-23.788-161.712-66.983
			C91.18,439.156,67.392,381.726,67.392,320.639c0-50.436,16.094-98.259,46.542-138.299c29.394-38.652,71.071-67.441,117.395-81.095
			V57.896z"/>
	</g>
	<g>
		<path d="M317.508,293.624V93.438V50.436V21.92c0-11.83-9.591-21.42-21.421-21.42c-11.83,0-21.419,9.59-21.419,21.42v28.516v43.003
			v200.186c0,11.83,9.59,21.42,21.419,21.42C307.917,315.045,317.508,305.455,317.508,293.624z"/>
		<path d="M296.087,315.545c-12.086,0-21.919-9.833-21.919-21.92V21.92c0-12.086,9.833-21.92,21.919-21.92
			c12.087,0,21.921,9.833,21.921,21.92v271.704C318.008,305.711,308.174,315.545,296.087,315.545z M296.087,1
			c-11.535,0-20.919,9.385-20.919,20.92v271.705c0,11.535,9.384,20.92,20.919,20.92c11.536,0,20.921-9.385,20.921-20.921V21.92
			C317.008,10.385,307.624,1,296.087,1z"/>
	</g>
</g>
<g>
</g>
<g>
</g>
<g>
</g>
<g>
</g>
<g>
</g>
<g>
</g>
<g>
</g>
<g>
</g>
<g>
</g>
<g>
</g>
<g>
</g>
<g>
</g>
<g>
</g>
<g>
</g>
<g>
</g>
</svg>
