<?xml version="1.0" encoding="iso-8859-1"?>
<!-- Generator: Adobe Illustrator 19.0.0, SVG Export Plug-In . SVG Version: 6.00 Build 0)  -->
<svg version="1.1" id="Layer_1" xmlns="http://www.w3.org/2000/svg" xmlns:xlink="http://www.w3.org/1999/xlink" x="0px" y="0px"
	 viewBox="0 0 512 512" style="enable-background:new 0 0 512 512;" xml:space="preserve">
<g>
	<g>
		<path d="M495.965,352.252h-39.772l-25.527-48.64c-1.432-2.729-4.261-4.44-7.344-4.44h-15.823v-22.67
			c0-4.58-3.712-8.294-8.294-8.294H105.054c-4.58,0-8.294,3.713-8.294,8.294v22.67H80.937c-3.083,0-5.912,1.71-7.344,4.44
			l-25.527,48.64H8.294c-4.58,0-8.294,3.713-8.294,8.294c0,4.58,3.713,8.294,8.294,8.294h487.672c4.581,0,8.294-3.713,8.294-8.294
			C504.259,355.966,500.547,352.252,495.965,352.252z M113.348,284.796h277.564v14.376H113.348V284.796z M66.799,352.252
			l19.152-36.492h332.358l19.152,36.492H66.799z"/>
	</g>
</g>
<g>
	<g>
		<path d="M284.046,182.895l-25.102-36.17c-1.549-2.233-4.096-3.565-6.814-3.565s-5.264,1.333-6.814,3.565l-25.103,36.17
			c-10.724,15.453-8.856,36.323,4.445,49.623c7.338,7.339,17.095,11.381,27.472,11.381c10.378,0,20.134-4.042,27.472-11.38
			C292.902,219.218,294.772,198.348,284.046,182.895z M267.872,220.791c-4.204,4.206-9.794,6.521-15.742,6.521
			c-5.947,0-11.538-2.316-15.743-6.521c-7.622-7.622-8.694-19.581-2.548-28.436l18.289-26.353l18.29,26.353
			C276.566,201.209,275.495,213.168,267.872,220.791z"/>
	</g>
</g>
<g>
	<g>
		<path d="M395.888,226.74c-4.581,0-8.294,3.713-8.294,8.294c0,4.58,3.713,8.294,8.294,8.294c15.244,0,27.646,12.402,27.646,27.646
			c0,4.58,3.712,8.294,8.294,8.294s8.294-3.713,8.294-8.294C440.121,246.583,420.278,226.74,395.888,226.74z"/>
	</g>
</g>
<g>
	<g>
		<path d="M395.888,154.861c-4.581,0-8.294,3.713-8.294,8.294c0,4.58,3.712,8.294,8.294,8.294c54.878,0,99.525,44.647,99.525,99.525
			c0,4.58,3.712,8.294,8.294,8.294s8.294-3.713,8.294-8.294C512,206.949,459.913,154.861,395.888,154.861z"/>
	</g>
</g>
<g>
	<g>
		<path d="M395.888,190.801c-4.581,0-8.294,3.713-8.294,8.294c0,4.58,3.713,8.294,8.294,8.294c35.061,0,63.585,28.524,63.585,63.585
			c0,4.58,3.712,8.294,8.294,8.294s8.294-3.713,8.294-8.294C476.06,226.766,440.096,190.801,395.888,190.801z"/>
	</g>
</g>
<g>
</g>
<g>
</g>
<g>
</g>
<g>
</g>
<g>
</g>
<g>
</g>
<g>
</g>
<g>
</g>
<g>
</g>
<g>
</g>
<g>
</g>
<g>
</g>
<g>
</g>
<g>
</g>
<g>
</g>
</svg>
